<svg width="50" height="50" viewBox="0 0 50 50" fill="#000000" xmlns="http://www.w3.org/2000/svg">
<path d="M42.1875 43.75C41.9823 43.7503 41.779 43.71 41.5895 43.6314C41.3999 43.5528 41.2278 43.4375 41.083 43.292L6.70801 8.91699C6.42735 8.62159 6.2732 8.22823 6.27841 7.82079C6.28363 7.41335 6.4478 7.02406 6.73593 6.73594C7.02406 6.44781 7.41334 6.28363 7.82078 6.27842C8.22822 6.2732 8.62158 6.42735 8.91699 6.70801L43.292 41.083C43.5104 41.3015 43.6591 41.5799 43.7193 41.8829C43.7795 42.1859 43.7486 42.4999 43.6304 42.7853C43.5122 43.0708 43.312 43.3147 43.0552 43.4864C42.7984 43.6581 42.4964 43.7499 42.1875 43.75V43.75ZM24.2187 30.8447L19.1611 25.7871C19.1322 25.7584 19.0949 25.7394 19.0546 25.733C19.0143 25.7265 18.973 25.7328 18.9365 25.751C18.8999 25.7692 18.87 25.7984 18.851 25.8345C18.8319 25.8706 18.8246 25.9117 18.8301 25.9522C19.0343 27.2643 19.6504 28.4775 20.5894 29.4165C21.5283 30.3555 22.7416 30.9716 24.0537 31.1758C24.0942 31.1813 24.1353 31.174 24.1714 31.1549C24.2075 31.1358 24.2367 31.1059 24.2549 31.0694C24.2731 31.0329 24.2794 30.9916 24.2729 30.9513C24.2664 30.911 24.2475 30.8737 24.2187 30.8447ZM25.7812 19.1553L30.8467 24.2188C30.8756 24.2479 30.9129 24.2672 30.9534 24.2739C30.9939 24.2806 31.0355 24.2744 31.0723 24.2561C31.109 24.2378 31.1391 24.2084 31.1582 24.1721C31.1773 24.1358 31.1845 24.0944 31.1787 24.0537C30.975 22.7398 30.3585 21.5248 29.4183 20.5846C28.4781 19.6444 27.2631 19.0279 25.9492 18.8242C25.9085 18.8179 25.8669 18.8247 25.8303 18.8435C25.7936 18.8623 25.7639 18.8922 25.7453 18.9289C25.7266 18.9656 25.7201 19.0073 25.7265 19.0479C25.733 19.0886 25.7522 19.1261 25.7812 19.1553V19.1553Z"/>
<path d="M47.9492 26.6953C48.2725 26.1879 48.4435 25.5983 48.4417 24.9966C48.44 24.3949 48.2657 23.8064 47.9395 23.3008C45.3555 19.3047 42.0029 15.9102 38.2451 13.4834C34.082 10.7959 29.4922 9.375 24.9687 9.375C22.5841 9.37828 20.2156 9.76708 17.9551 10.5264C17.8918 10.5474 17.835 10.5843 17.79 10.6335C17.745 10.6827 17.7134 10.7427 17.6981 10.8076C17.6828 10.8725 17.6844 10.9402 17.7028 11.0043C17.7211 11.0684 17.7555 11.1268 17.8027 11.1738L22.416 15.7871C22.4639 15.8351 22.5235 15.8698 22.589 15.8878C22.6544 15.9058 22.7233 15.9064 22.7891 15.8896C24.3528 15.5086 25.9883 15.5365 27.5381 15.9707C29.0879 16.405 30.4998 17.2309 31.6379 18.369C32.776 19.507 33.6019 20.9189 34.0361 22.4688C34.4703 24.0186 34.4983 25.654 34.1172 27.2178C34.1006 27.2834 34.1013 27.3521 34.1193 27.4174C34.1373 27.4826 34.1719 27.542 34.2197 27.5898L40.8555 34.2305C40.9245 34.2996 41.017 34.3404 41.1146 34.3447C41.2122 34.3491 41.3079 34.3167 41.3828 34.2539C43.9371 32.0767 46.1505 29.5289 47.9492 26.6953ZM25 34.375C23.5808 34.3751 22.1801 34.053 20.9035 33.4329C19.627 32.8129 18.5078 31.9111 17.6305 30.7956C16.7531 29.68 16.1405 28.3799 15.8388 26.9931C15.5371 25.6064 15.5541 24.1692 15.8887 22.79C15.9053 22.7245 15.9045 22.6557 15.8866 22.5905C15.8686 22.5252 15.834 22.4658 15.7861 22.418L9.25879 15.8877C9.18958 15.8184 9.09686 15.7776 8.99901 15.7735C8.90116 15.7693 8.80531 15.8021 8.73047 15.8652C6.34863 17.8975 4.14063 20.3701 2.12207 23.2598C1.76874 23.7669 1.57414 24.3676 1.56301 24.9856C1.55188 25.6036 1.72472 26.2109 2.05957 26.7305C4.63867 30.7666 7.95703 34.166 11.6572 36.5596C15.8262 39.2578 20.3047 40.625 24.9687 40.625C27.3775 40.6185 29.7706 40.238 32.0625 39.4971C32.1263 39.4767 32.1839 39.4402 32.2295 39.3912C32.2752 39.3421 32.3075 39.2821 32.3233 39.217C32.3391 39.1519 32.3378 39.0838 32.3197 39.0193C32.3016 38.9548 32.2671 38.896 32.2197 38.8486L27.584 34.2139C27.5362 34.166 27.4767 34.1314 27.4115 34.1134C27.3463 34.0955 27.2775 34.0947 27.2119 34.1113C26.4877 34.2868 25.7452 34.3753 25 34.375V34.375Z"/>
</svg>
