<svg width="50" height="50" viewBox="0 0 50 50" fill="#000000" xmlns="http://www.w3.org/2000/svg">
<path d="M25 31.25C28.4518 31.25 31.25 28.4518 31.25 25C31.25 21.5482 28.4518 18.75 25 18.75C21.5482 18.75 18.75 21.5482 18.75 25C18.75 28.4518 21.5482 31.25 25 31.25Z"/>
<path d="M47.9336 23.3008C45.3496 19.3047 41.9971 15.9102 38.2393 13.4834C34.082 10.7959 29.4922 9.375 24.9668 9.375C20.8144 9.375 16.7314 10.5615 12.831 12.9014C8.85351 15.2871 5.24999 18.7725 2.12011 23.2598C1.76678 23.7669 1.57218 24.3676 1.56105 24.9856C1.54992 25.6036 1.72276 26.2109 2.05761 26.7305C4.63671 30.7666 7.95605 34.166 11.6553 36.5596C15.8203 39.2578 20.3027 40.625 24.9668 40.625C29.5283 40.625 34.1279 39.2158 38.2676 36.5508C42.0234 34.1318 45.3691 30.7246 47.9434 26.6953C48.2667 26.1879 48.4376 25.5983 48.4359 24.9966C48.4341 24.3949 48.2598 23.8064 47.9336 23.3008V23.3008ZM25 34.375C23.1458 34.375 21.3332 33.8252 19.7915 32.795C18.2498 31.7649 17.0482 30.3007 16.3386 28.5877C15.6291 26.8746 15.4434 24.9896 15.8051 23.171C16.1669 21.3525 17.0598 19.682 18.3709 18.3709C19.682 17.0598 21.3525 16.1669 23.171 15.8051C24.9896 15.4434 26.8746 15.6291 28.5877 16.3386C30.3007 17.0482 31.7649 18.2498 32.795 19.7915C33.8252 21.3332 34.375 23.1458 34.375 25C34.3722 27.4855 33.3835 29.8684 31.626 31.626C29.8684 33.3835 27.4855 34.3722 25 34.375V34.375Z"/>
</svg>
