<svg xmlns="http://www.w3.org/2000/svg" xmlns:xlink="http://www.w3.org/1999/xlink" width="500" zoomAndPan="magnify" viewBox="0 0 375 374.999991" height="500" preserveAspectRatio="xMidYMid meet" version="1.0"><defs><clipPath id="id1"><path d="M 40 97.664062 L 335.828125 97.664062 L 335.828125 264.753906 L 40 264.753906 Z M 40 97.664062 " clip-rule="nonzero"/></clipPath><clipPath id="id2"><path d="M 178.054688 119.386719 L 225.796875 119.386719 L 225.796875 167.128906 L 178.054688 167.128906 Z M 178.054688 119.386719 " clip-rule="nonzero"/></clipPath><clipPath id="id3"><path d="M 112.886719 229.167969 L 160.625 229.167969 L 160.625 276.90625 L 112.886719 276.90625 Z M 112.886719 229.167969 " clip-rule="nonzero"/></clipPath><clipPath id="id4"><path d="M 243.222656 229.167969 L 290.964844 229.167969 L 290.964844 276.90625 L 243.222656 276.90625 Z M 243.222656 229.167969 " clip-rule="nonzero"/></clipPath></defs><g clip-path="url(#id1)"><path fill="#00a1ff" d="M 239.300781 97.664062 L 271.371094 129.691406 L 203.386719 197.816406 L 139.253906 133.761719 L 40.164062 232.726562 L 72.230469 264.753906 L 139.253906 197.816406 L 203.386719 261.871094 L 303.4375 161.722656 L 335.503906 193.75 L 335.503906 97.664062 Z M 239.300781 97.664062 " fill-opacity="1" fill-rule="nonzero"/></g><g clip-path="url(#id2)"><path fill="#ffbd59" d="M 201.925781 119.386719 C 188.742188 119.386719 178.054688 130.074219 178.054688 143.257812 C 178.054688 156.441406 188.742188 167.128906 201.925781 167.128906 C 215.109375 167.128906 225.796875 156.441406 225.796875 143.257812 C 225.796875 130.074219 215.109375 119.386719 201.925781 119.386719 " fill-opacity="1" fill-rule="nonzero"/></g><g clip-path="url(#id3)"><path fill="#7ed957" d="M 136.757812 229.167969 C 123.574219 229.167969 112.886719 239.855469 112.886719 253.035156 C 112.886719 266.21875 123.574219 276.90625 136.757812 276.90625 C 149.941406 276.90625 160.625 266.21875 160.625 253.035156 C 160.625 239.855469 149.941406 229.167969 136.757812 229.167969 " fill-opacity="1" fill-rule="nonzero"/></g><g clip-path="url(#id4)"><path fill="#ff5757" d="M 267.09375 229.167969 C 253.910156 229.167969 243.222656 239.855469 243.222656 253.035156 C 243.222656 266.21875 253.910156 276.90625 267.09375 276.90625 C 280.277344 276.90625 290.964844 266.21875 290.964844 253.035156 C 290.964844 239.855469 280.277344 229.167969 267.09375 229.167969 " fill-opacity="1" fill-rule="nonzero"/></g></svg>