<svg xmlns="http://www.w3.org/2000/svg" xmlns:xlink="http://www.w3.org/1999/xlink" width="500" zoomAndPan="magnify" viewBox="0 0 375 374.999991" height="500" preserveAspectRatio="xMidYMid meet" version="1.0"><defs><clipPath id="id1"><path d="M 39.375 39.375 L 335.625 39.375 L 335.625 335.625 L 39.375 335.625 Z M 39.375 39.375 " clip-rule="nonzero"/></clipPath><clipPath id="id2"><path d="M 135.53125 115.730469 L 239.78125 115.730469 L 239.78125 264.230469 L 135.53125 264.230469 Z M 135.53125 115.730469 " clip-rule="nonzero"/></clipPath></defs><g clip-path="url(#id1)"><path fill="#3b3aef" d="M 187.5 335.625 C 248.539062 335.625 283.898438 323.117188 299.738281 315.527344 C 303.191406 313.871094 306.273438 311.6875 308.980469 308.980469 C 311.6875 306.273438 313.871094 303.191406 315.527344 299.738281 C 323.117188 283.898438 335.625 248.539062 335.625 187.5 C 335.625 126.460938 323.117188 91.101562 315.527344 75.261719 C 313.871094 71.808594 311.6875 68.726562 308.980469 66.019531 C 306.273438 63.3125 303.191406 61.128906 299.738281 59.472656 C 283.898438 51.882812 248.539062 39.375 187.5 39.375 C 126.460938 39.375 91.101562 51.882812 75.261719 59.472656 C 71.808594 61.128906 68.726562 63.3125 66.019531 66.019531 C 63.3125 68.726562 61.128906 71.808594 59.472656 75.261719 C 51.882812 91.101562 39.375 126.460938 39.375 187.5 C 39.375 248.539062 51.882812 283.898438 59.472656 299.738281 C 61.128906 303.191406 63.3125 306.273438 66.019531 308.980469 C 68.726562 311.6875 71.808594 313.871094 75.261719 315.527344 C 91.101562 323.117188 126.460938 335.625 187.5 335.625 Z M 187.5 335.625 " fill-opacity="1" fill-rule="nonzero"/></g><g clip-path="url(#id2)"><path fill="#f4f6fc" d="M 224.886719 115.851562 C 223.910156 115.851562 222.941406 115.945312 221.984375 116.136719 C 221.023438 116.324219 220.09375 116.609375 219.1875 116.980469 C 218.285156 117.355469 217.425781 117.8125 216.613281 118.351562 C 215.800781 118.894531 215.046875 119.511719 214.355469 120.199219 C 213.664062 120.890625 213.046875 121.640625 212.503906 122.449219 C 211.960938 123.261719 211.503906 124.117188 211.128906 125.015625 C 210.753906 125.917969 210.472656 126.847656 210.28125 127.804688 C 210.089844 128.757812 209.996094 129.726562 209.996094 130.699219 L 209.996094 138.125 C 209.996094 139.101562 210.089844 140.066406 210.28125 141.023438 C 210.472656 141.980469 210.753906 142.90625 211.128906 143.808594 C 211.503906 144.707031 211.960938 145.566406 212.503906 146.375 C 213.046875 147.1875 213.664062 147.9375 214.355469 148.625 C 215.046875 149.316406 215.800781 149.929688 216.613281 150.472656 C 217.425781 151.015625 218.285156 151.472656 219.1875 151.84375 C 220.09375 152.21875 221.023438 152.5 221.984375 152.691406 C 222.941406 152.878906 223.910156 152.976562 224.886719 152.976562 C 225.867188 152.976562 226.835938 152.878906 227.792969 152.691406 C 228.753906 152.5 229.683594 152.21875 230.585938 151.84375 C 231.492188 151.472656 232.347656 151.015625 233.164062 150.472656 C 233.976562 149.929688 234.726562 149.316406 235.417969 148.625 C 236.109375 147.9375 236.726562 147.1875 237.269531 146.375 C 237.8125 145.566406 238.273438 144.707031 238.648438 143.808594 C 239.023438 142.90625 239.304688 141.980469 239.496094 141.023438 C 239.6875 140.066406 239.78125 139.101562 239.78125 138.125 L 239.78125 130.699219 C 239.78125 129.726562 239.6875 128.757812 239.496094 127.804688 C 239.304688 126.847656 239.023438 125.917969 238.648438 125.015625 C 238.273438 124.117188 237.8125 123.261719 237.269531 122.449219 C 236.726562 121.640625 236.109375 120.890625 235.417969 120.199219 C 234.726562 119.511719 233.976562 118.894531 233.164062 118.351562 C 232.347656 117.8125 231.492188 117.355469 230.585938 116.980469 C 229.683594 116.609375 228.753906 116.324219 227.792969 116.136719 C 226.835938 115.945312 225.867188 115.851562 224.886719 115.851562 Z M 224.886719 167.824219 C 223.910156 167.824219 222.941406 167.921875 221.984375 168.109375 C 221.023438 168.300781 220.09375 168.582031 219.1875 168.957031 C 218.285156 169.328125 217.425781 169.785156 216.613281 170.328125 C 215.800781 170.871094 215.046875 171.484375 214.355469 172.175781 C 213.664062 172.863281 213.046875 173.613281 212.503906 174.425781 C 211.960938 175.234375 211.503906 176.089844 211.128906 176.992188 C 210.753906 177.894531 210.472656 178.820312 210.28125 179.777344 C 210.089844 180.734375 209.996094 181.699219 209.996094 182.675781 L 209.996094 212.375 C 209.996094 213.105469 209.960938 213.832031 209.886719 214.558594 C 209.816406 215.285156 209.707031 216.003906 209.566406 216.722656 C 209.421875 217.4375 209.246094 218.144531 209.035156 218.839844 C 208.820312 219.539062 208.574219 220.226562 208.292969 220.898438 C 208.015625 221.574219 207.703125 222.230469 207.359375 222.875 C 207.011719 223.519531 206.636719 224.144531 206.230469 224.75 C 205.824219 225.355469 205.386719 225.941406 204.925781 226.507812 C 204.460938 227.070312 203.96875 227.609375 203.453125 228.125 C 202.933594 228.640625 202.394531 229.132812 201.828125 229.59375 C 201.261719 230.058594 200.675781 230.492188 200.066406 230.894531 C 199.457031 231.300781 198.832031 231.675781 198.1875 232.019531 C 197.542969 232.363281 196.878906 232.675781 196.203125 232.953125 C 195.527344 233.234375 194.839844 233.480469 194.140625 233.691406 C 193.441406 233.902344 192.730469 234.078125 192.015625 234.222656 C 191.296875 234.363281 190.574219 234.472656 189.84375 234.542969 C 189.117188 234.613281 188.386719 234.648438 187.65625 234.648438 C 186.925781 234.648438 186.195312 234.613281 185.464844 234.542969 C 184.738281 234.472656 184.015625 234.363281 183.296875 234.222656 C 182.582031 234.078125 181.871094 233.902344 181.171875 233.691406 C 180.472656 233.480469 179.78125 233.234375 179.105469 232.953125 C 178.429688 232.675781 177.769531 232.363281 177.125 232.019531 C 176.480469 231.675781 175.851562 231.300781 175.246094 230.894531 C 174.636719 230.492188 174.050781 230.058594 173.484375 229.59375 C 172.917969 229.132812 172.378906 228.640625 171.859375 228.125 C 171.34375 227.609375 170.851562 227.070312 170.386719 226.507812 C 169.921875 225.941406 169.488281 225.355469 169.082031 224.75 C 168.675781 224.144531 168.300781 223.519531 167.953125 222.875 C 167.609375 222.230469 167.296875 221.574219 167.015625 220.898438 C 166.738281 220.226562 166.492188 219.539062 166.277344 218.839844 C 166.066406 218.144531 165.890625 217.4375 165.746094 216.722656 C 165.601562 216.003906 165.496094 215.285156 165.425781 214.558594 C 165.351562 213.832031 165.316406 213.105469 165.316406 212.375 L 165.316406 130.699219 C 165.316406 129.726562 165.222656 128.757812 165.03125 127.804688 C 164.839844 126.847656 164.558594 125.917969 164.183594 125.015625 C 163.808594 124.117188 163.351562 123.261719 162.808594 122.449219 C 162.261719 121.640625 161.644531 120.890625 160.953125 120.199219 C 160.261719 119.511719 159.511719 118.894531 158.699219 118.351562 C 157.886719 117.8125 157.027344 117.355469 156.125 116.980469 C 155.21875 116.609375 154.289062 116.324219 153.328125 116.136719 C 152.371094 115.945312 151.402344 115.851562 150.425781 115.851562 C 149.445312 115.851562 148.476562 115.945312 147.519531 116.136719 C 146.558594 116.324219 145.628906 116.609375 144.722656 116.980469 C 143.820312 117.355469 142.964844 117.8125 142.148438 118.351562 C 141.335938 118.894531 140.585938 119.511719 139.894531 120.199219 C 139.203125 120.890625 138.585938 121.640625 138.039062 122.449219 C 137.496094 123.261719 137.039062 124.117188 136.664062 125.015625 C 136.289062 125.917969 136.007812 126.847656 135.816406 127.804688 C 135.625 128.757812 135.53125 129.726562 135.53125 130.699219 L 135.53125 212.375 C 135.53125 212.5 135.53125 212.632812 135.535156 212.757812 C 135.554688 214.445312 135.65625 216.132812 135.839844 217.8125 C 136.027344 219.492188 136.292969 221.15625 136.640625 222.8125 C 136.988281 224.464844 137.414062 226.097656 137.921875 227.710938 C 138.429688 229.320312 139.011719 230.90625 139.675781 232.460938 C 140.339844 234.015625 141.074219 235.535156 141.886719 237.019531 C 142.695312 238.5 143.578125 239.941406 144.527344 241.339844 C 145.480469 242.738281 146.496094 244.085938 147.582031 245.386719 C 148.664062 246.683594 149.808594 247.929688 151.015625 249.117188 C 152.21875 250.304688 153.480469 251.429688 154.796875 252.496094 C 156.109375 253.558594 157.472656 254.558594 158.886719 255.492188 C 160.300781 256.421875 161.753906 257.285156 163.253906 258.078125 C 164.75 258.867188 166.28125 259.582031 167.851562 260.226562 C 169.417969 260.867188 171.011719 261.433594 172.632812 261.917969 C 174.257812 262.40625 175.898438 262.8125 177.5625 263.140625 C 179.222656 263.46875 180.898438 263.714844 182.585938 263.878906 C 184.269531 264.042969 185.960938 264.125 187.65625 264.125 C 189.351562 264.125 191.039062 264.042969 192.726562 263.878906 C 194.414062 263.714844 196.089844 263.46875 197.75 263.140625 C 199.414062 262.8125 201.054688 262.40625 202.675781 261.917969 C 204.300781 261.433594 205.894531 260.867188 207.460938 260.226562 C 209.03125 259.582031 210.5625 258.867188 212.058594 258.078125 C 213.554688 257.285156 215.011719 256.421875 216.425781 255.492188 C 217.835938 254.558594 219.203125 253.558594 220.515625 252.496094 C 221.832031 251.429688 223.09375 250.304688 224.296875 249.117188 C 225.503906 247.929688 226.648438 246.683594 227.730469 245.386719 C 228.8125 244.085938 229.832031 242.738281 230.785156 241.339844 C 231.734375 239.941406 232.617188 238.5 233.425781 237.019531 C 234.238281 235.535156 234.972656 234.015625 235.636719 232.460938 C 236.296875 230.90625 236.882812 229.320312 237.390625 227.710938 C 237.898438 226.097656 238.324219 224.464844 238.671875 222.8125 C 239.019531 221.15625 239.285156 219.492188 239.472656 217.8125 C 239.65625 216.132812 239.757812 214.445312 239.777344 212.757812 C 239.78125 212.632812 239.78125 212.5 239.78125 212.375 L 239.78125 182.675781 C 239.78125 181.699219 239.683594 180.734375 239.492188 179.777344 C 239.304688 178.824219 239.019531 177.894531 238.644531 176.992188 C 238.273438 176.09375 237.8125 175.238281 237.269531 174.425781 C 236.726562 173.617188 236.109375 172.867188 235.417969 172.175781 C 234.726562 171.488281 233.972656 170.871094 233.160156 170.328125 C 232.347656 169.789062 231.488281 169.332031 230.585938 168.957031 C 229.683594 168.582031 228.753906 168.300781 227.792969 168.113281 C 226.835938 167.921875 225.867188 167.824219 224.886719 167.824219 Z M 224.886719 167.824219 " fill-opacity="1" fill-rule="nonzero"/></g></svg>